<?xml version="1.0" encoding="UTF-8" standalone="no"?>
<!-- Copyright 2017 mathsisfun.com -->
<svg xmlns="http://www.w3.org/2000/svg" xmlns:xlink="http://www.w3.org/1999/xlink" width="597" height="302.4" version="1.1" style="font-size:14px; stroke-width:0.03;">
<defs>
	<marker id="aa2" style="overflow:visible;" orient="auto">
		<path transform="matrix(-0.4,0,0,-0.4,-4,0)" style="fill:#c17d11; stroke:#c17d11; stroke-width:1pt;" d="M 0,0 5,-5 -12.5,0 5,5 Z"/>
	</marker>
	<marker id="aa3" style="overflow:visible;" orient="auto">
		<path transform="matrix(-0.4,0,0,-0.4,-4,0)" style="fill:#c17d11; stroke:#c17d11; stroke-width:1pt;" d="M 0,0 5,-5 -12.5,0 5,5 Z"/>
	</marker>
</defs>
<path style="fill:none; stroke:#b3b3b3; stroke-linejoin:round;" d="M 310.8,254.6 H 124.3 V 37.4 H 497.3 V 254.6 Z"/>
<path style="fill:none; stroke:#b3b3b3; stroke-linejoin:round;" d="M 124.3,37.4 V 254.6"/>
<path style="fill:none; stroke:#b3b3b3; stroke-width:0.93; stroke-linejoin:round;" d="M 170.9,6.7 V 254.6"/>
<path style="fill:none; stroke:#b3b3b3; stroke-width:0.93; stroke-linejoin:round;" d="M 217.5,6.7 V 254.6"/>
<path style="fill:none; stroke:#b3b3b3; stroke-width:0.93; stroke-linejoin:round;" d="M 264.1,6.7 V 254.6"/>
<path style="fill:none; stroke:#b3b3b3; stroke-width:0.93; stroke-linejoin:round;" d="M 310.8,6.7 V 254.6"/>
<path style="fill:none; stroke:#b3b3b3; stroke-width:0.93; stroke-linejoin:round;" d="M 357.4,6.7 V 254.6"/>
<path style="fill:none; stroke:#b3b3b3; stroke-linejoin:round;" d="M 404,37.4 V 254.6"/>
<path style="fill:none; stroke:#b3b3b3; stroke-linejoin:round;" d="M 450.6,37.4 V 254.6"/>
<path style="fill:none; stroke:#b3b3b3; stroke-linejoin:round;" d="M 497.2,37.4 V 254.6"/>
<path style="fill:none; stroke:#b3b3b3; stroke-linejoin:round;" d="M 497.2,254.6 H 124.3"/>
<path style="fill:none; stroke:#b3b3b3; stroke-width:1.04; stroke-linejoin:round;" d="M 590.4,223.5 H 124.3"/>
<path style="fill:none; stroke:#b3b3b3; stroke-width:1.04; stroke-linejoin:round;" d="M 590.4,192.5 H 124.3"/>
<path style="fill:none; stroke:#b3b3b3; stroke-width:1.04; stroke-linejoin:round;" d="M 590.4,161.5 H 124.3"/>
<path style="fill:none; stroke:#b3b3b3; stroke-width:1.04; stroke-linejoin:round;" d="M 590.4,130.5 H 124.3"/>
<path style="fill:none; stroke:#b3b3b3; stroke-width:1.04; stroke-linejoin:round;" d="M 590.4,99.4 H 124.3"/>
<path style="fill:none; stroke:#b3b3b3; stroke-width:1.04; stroke-linejoin:round;" d="M 590.4,68.4 H 124.3"/>
<path style="fill:none; stroke:#b3b3b3; stroke-width:1.04; stroke-linejoin:round;" d="M 590.4,37.4 H 124.3"/>
<path style="fill:none; stroke:#b3b3b3; stroke-linejoin:round;" d="m 124.3,259.5 v -5"/>
<path style="fill:none; stroke:#b3b3b3; stroke-linejoin:round;" d="m 124.3,259.5 v -5"/>
<path style="fill:none; stroke:#b3b3b3; stroke-linejoin:round;" d="m 170.9,259.5 v -5"/>
<path style="fill:none; stroke:#b3b3b3; stroke-linejoin:round;" d="m 170.9,259.5 v -5"/>
<path style="fill:none; stroke:#b3b3b3; stroke-linejoin:round;" d="m 217.5,259.5 v -5"/>
<path style="fill:none; stroke:#b3b3b3; stroke-linejoin:round;" d="m 217.5,259.5 v -5"/>
<path style="fill:none; stroke:#b3b3b3; stroke-linejoin:round;" d="m 264.1,259.5 v -5"/>
<path style="fill:none; stroke:#b3b3b3; stroke-linejoin:round;" d="m 264.1,259.5 v -5"/>
<path style="fill:none; stroke:#b3b3b3; stroke-linejoin:round;" d="m 310.8,259.5 v -5"/>
<path style="fill:none; stroke:#b3b3b3; stroke-linejoin:round;" d="m 310.8,259.5 v -5"/>
<path style="fill:none; stroke:#b3b3b3; stroke-linejoin:round;" d="m 170.9,259.5 v -5"/>
<path style="fill:none; stroke:#b3b3b3; stroke-linejoin:round;" d="m 170.9,259.5 v -5"/>
<path style="fill:none; stroke:#b3b3b3; stroke-linejoin:round;" d="m 217.5,259.5 v -5"/>
<path style="fill:none; stroke:#b3b3b3; stroke-linejoin:round;" d="m 217.5,259.5 v -5"/>
<path style="fill:none; stroke:#b3b3b3; stroke-linejoin:round;" d="m 264.1,259.5 v -5"/>
<path style="fill:none; stroke:#b3b3b3; stroke-linejoin:round;" d="m 264.1,259.5 v -5"/>
<path style="fill:none; stroke:#b3b3b3; stroke-linejoin:round;" d="m 497.2,259.5 v -5"/>
<path style="fill:none; stroke:#b3b3b3; stroke-linejoin:round;" d="m 497.2,259.5 v -5"/>
<path style="fill:none; stroke:#b3b3b3; stroke-width:1.04; stroke-linejoin:round;" d="M 124.3,254.6 H 590.4"/>
<path style="fill:none; stroke:#b3b3b3; stroke-linejoin:round;" d="m 119.3,254.6 h 5"/>
<path style="fill:none; stroke:#b3b3b3; stroke-linejoin:round;" d="m 119.3,254.6 h 5"/>
<path style="fill:none; stroke:#b3b3b3; stroke-linejoin:round;" d="m 119.3,223.5 h 5"/>
<path style="fill:none; stroke:#b3b3b3; stroke-linejoin:round;" d="m 119.3,223.5 h 5"/>
<path style="fill:none; stroke:#b3b3b3; stroke-linejoin:round;" d="m 119.3,192.5 h 5"/>
<path style="fill:none; stroke:#b3b3b3; stroke-linejoin:round;" d="m 119.3,192.5 h 5"/>
<path style="fill:none; stroke:#b3b3b3; stroke-linejoin:round;" d="m 119.3,161.5 h 5"/>
<path style="fill:none; stroke:#b3b3b3; stroke-linejoin:round;" d="m 119.3,161.5 h 5"/>
<path style="fill:none; stroke:#b3b3b3; stroke-linejoin:round;" d="m 119.3,130.5 h 5"/>
<path style="fill:none; stroke:#b3b3b3; stroke-linejoin:round;" d="m 119.3,130.5 h 5"/>
<path style="fill:none; stroke:#b3b3b3; stroke-linejoin:round;" d="m 119.3,99.4 h 5"/>
<path style="fill:none; stroke:#b3b3b3; stroke-linejoin:round;" d="m 119.3,99.4 h 5"/>
<path style="fill:none; stroke:#b3b3b3; stroke-linejoin:round;" d="m 119.3,68.4 h 5"/>
<path style="fill:none; stroke:#b3b3b3; stroke-linejoin:round;" d="m 119.3,68.4 h 5"/>
<path style="fill:none; stroke:#b3b3b3; stroke-linejoin:round;" d="m 119.3,37.4 h 5"/>
<path style="fill:none; stroke:#b3b3b3; stroke-linejoin:round;" d="m 119.3,37.4 h 5"/>
<path style="fill:none; stroke:#b3b3b3; stroke-width:0.93; stroke-linejoin:round;" d="M 124.3,254.6 V 6.7"/>
<text x="117.2" y="271.6" style="font-family:Arial;">10</text>
<text x="163.7" y="271.7" style="font-family:Arial;">12</text>
<text x="210.1" y="271.7" style="font-family:Arial;">14</text>
<text x="256.5" y="271.6" style="font-family:Arial;">16</text>
<text x="303" y="271.6" style="font-family:Arial;">18</text>
<text x="350" y="271.6" style="font-family:Arial;">20</text>
<text x="396.4" y="271.7" style="font-family:Arial;">22</text>
<text x="442.8" y="271.7" style="font-family:Arial;">24</text>
<text x="489.3" y="271.6" style="font-family:Arial;">26</text>
<text x="98.9" y="256.1" style="font-family:Arial;">$0</text>
<text x="83.3" y="225.5" style="font-family:Arial;">$100</text>
<text x="83.3" y="194.8" style="font-family:Arial;">$200</text>
<text x="83.3" y="164.2" style="font-family:Arial;">$300</text>
<text x="83.3" y="133.5" style="font-family:Arial;">$400</text>
<text x="83.3" y="102.9" style="font-family:Arial;">$500</text>
<text x="83.3" y="72.2" style="font-family:Arial;">$600</text>
<text x="83.3" y="41.6" style="font-family:Arial;">$700</text>
<text x="247.6" y="297.7" style="font-family:Georgia; font-size:21px;">Temperature °C</text>
<text x="-159.5" y="68.1" transform="rotate(-90)" style="font-family:Georgia; font-size:21px;">Sales</text>
<path style="fill:none; stroke:#ff9900; stroke-width:1.93;" d="M 143.8,212.2 488.6,58.1"/>
<text x="546.2" y="302.1" style="font-family:Arial; font-size:28px; fill:#c17d11;">29°</text>
<text x="-1" y="32.8" style="font-family:Arial; font-size:28px; fill:#c17d11;">$740</text>
<path style="fill:none; stroke:#b3b3b3; stroke-width:0.93; stroke-linejoin:round;" d="M 404,6.7 V 254.6"/>
<path style="fill:none; stroke:#b3b3b3; stroke-width:0.93; stroke-linejoin:round;" d="M 450.6,6.7 V 254.6"/>
<path style="fill:none; stroke:#b3b3b3; stroke-width:0.93; stroke-linejoin:round;" d="M 497.2,6.7 V 254.6"/>
<path style="fill:none; stroke:#b3b3b3; stroke-linejoin:round;" d="m 217.5,259.5 v -5"/>
<path style="fill:none; stroke:#b3b3b3; stroke-linejoin:round;" d="m 217.5,259.5 v -5"/>
<path style="fill:none; stroke:#b3b3b3; stroke-linejoin:round;" d="m 264.1,259.5 v -5"/>
<path style="fill:none; stroke:#b3b3b3; stroke-linejoin:round;" d="m 264.1,259.5 v -5"/>
<path style="fill:none; stroke:#b3b3b3; stroke-linejoin:round;" d="m 497.2,259.5 v -5"/>
<path style="fill:none; stroke:#b3b3b3; stroke-linejoin:round;" d="m 497.2,259.5 v -5"/>
<g transform="matrix(0.033073,0,0,0.033073,60.6508,32.1597)">
	<circle id="aa1" cx="3247.8" cy="5011.8" r="96.4703" style="color:black; overflow:visible; fill:#005c94; stroke:#005c94; stroke-width:79.37;"/>
	<use transform="translate(1646.42,-295.842)" xlink:href="#aa1"/>
	<use transform="translate(2379.6,-1350.58)" xlink:href="#aa1"/>
	<use transform="translate(3215.67,-1299.13)" xlink:href="#aa1"/>
	<use transform="translate(3768.77,-2096.62)" xlink:href="#aa1"/>
	<use transform="translate(4399.04,-2199.52)" xlink:href="#aa1"/>
	<use transform="translate(4694.88,-2070.89)" xlink:href="#aa1"/>
	<use transform="translate(5312.29,-2135.21)" xlink:href="#aa1"/>
	<use transform="translate(7601.85,-2405.32)" xlink:href="#aa1"/>
	<use transform="translate(7203.1,-3177.08)" xlink:href="#aa1"/>
	<use transform="translate(8154.94,-3357.16)" xlink:href="#aa1"/>
	<use transform="translate(9364.03,-4013.16)" xlink:href="#aa1"/>
</g>
<path style="fill:none; stroke:#b3b3b3; stroke-width:0.93; stroke-linejoin:round;" d="M 497.2,6.7 V 254.6"/>
<path style="fill:none; stroke:#b3b3b3; stroke-linejoin:round;" d="M 543.8,37.4 V 254.6"/>
<path style="fill:none; stroke:#b3b3b3; stroke-linejoin:round;" d="M 590.4,37.4 V 254.6"/>
<path style="fill:none; stroke:#b3b3b3; stroke-linejoin:round;" d="m 497.2,259.5 v -5"/>
<path style="fill:none; stroke:#b3b3b3; stroke-linejoin:round;" d="m 497.2,259.5 v -5"/>
<path style="fill:none; stroke:#b3b3b3; stroke-linejoin:round;" d="m 543.8,259.5 v -5"/>
<path style="fill:none; stroke:#b3b3b3; stroke-linejoin:round;" d="m 543.8,259.5 v -5"/>
<path style="fill:none; stroke:#b3b3b3; stroke-linejoin:round;" d="m 590.4,259.5 v -5"/>
<path style="fill:none; stroke:#b3b3b3; stroke-linejoin:round;" d="m 590.4,259.5 v -5"/>
<text x="535.7" y="271.6" style="font-family:Arial;">28</text>
<text x="582" y="271.6" style="font-family:Arial;">30</text>
<path style="fill:none; stroke:#b3b3b3; stroke-width:0.93; stroke-linejoin:round;" d="M 543.8,6.7 V 254.6"/>
<path style="fill:none; stroke:#b3b3b3; stroke-width:0.93; stroke-linejoin:round;" d="M 590.4,6.7 V 254.6"/>
<path style="fill:none; stroke:#b3b3b3; stroke-linejoin:round;" d="m 497.2,259.5 v -5"/>
<path style="fill:none; stroke:#b3b3b3; stroke-linejoin:round;" d="m 497.2,259.5 v -5"/>
<path style="fill:none; stroke:#b3b3b3; stroke-linejoin:round;" d="m 543.8,259.5 v -5"/>
<path style="fill:none; stroke:#b3b3b3; stroke-linejoin:round;" d="m 543.8,259.5 v -5"/>
<path style="fill:none; stroke:#b3b3b3; stroke-linejoin:round;" d="m 590.4,259.5 v -5"/>
<path style="fill:none; stroke:#b3b3b3; stroke-linejoin:round;" d="m 590.4,259.5 v -5"/>
<path style="fill:none; stroke:#ff9900; stroke-width:1.93; stroke-dasharray:7.7, 7.7;" d="M 493.9,56.3 590.5,13.5"/>
<path style="fill:none; stroke:#b3b3b3; stroke-width:1.04; stroke-linejoin:round;" d="M 590.4,6.4 H 124.3"/>
<path style="fill:none; stroke:#b3b3b3; stroke-linejoin:round;" d="m 119.3,37.4 h 5"/>
<path style="fill:none; stroke:#b3b3b3; stroke-linejoin:round;" d="m 119.3,37.4 h 5"/>
<path style="fill:none; stroke:#b3b3b3; stroke-linejoin:round;" d="m 119.3,6.4 h 5"/>
<path style="fill:none; stroke:#b3b3b3; stroke-linejoin:round;" d="m 119.3,6.4 h 5"/>
<text x="83.3" y="10.9" style="font-family:Arial;">$800</text>
<path style="marker-end:url(#aa2); fill:none; stroke:#c17d11; stroke-width:2.6;" d="M 565.7,23.1 H 69.8"/>
<path style="marker-end:url(#aa3); fill:none; stroke:#c17d11; stroke-width:2.6;" d="M 566.6,274 V 27.3"/>
</svg>